HIERARCHY
ROOT Hips
{
    OFFSET   0.000000   0.000000   0.000000
    CHANNELS 6 Xposition Yposition Zposition Zrotation Xrotation Yrotation
    JOINT Chest
    {
        OFFSET   0.000000   8.007230   0.000000
        CHANNELS 3 Zrotation Xrotation Yrotation
        JOINT Chest2
        {
            OFFSET   0.000000  22.077100   0.000000
            CHANNELS 3 Zrotation Xrotation Yrotation
            JOINT Neck
            {
                OFFSET   0.000000  23.255100   0.000000
                CHANNELS 3 Zrotation Xrotation Yrotation
                JOINT Head
                {
                    OFFSET   0.000000  14.370100   1.956600
                    CHANNELS 3 Zrotation Xrotation Yrotation
                    End Site
                    {
                        OFFSET   0.000000  19.566000   0.000000
                    }
                }
            }
            JOINT LeftCollar
            {
                OFFSET   3.911900  19.017000  -0.467063
                CHANNELS 3 Zrotation Xrotation Yrotation
                JOINT LeftShoulder
                {
                    OFFSET  10.383700   0.000000   0.000000
                    CHANNELS 3 Zrotation Xrotation Yrotation
                    JOINT LeftElbow
                    {
                        OFFSET  26.662100   0.001193   0.000980
                        CHANNELS 3 Zrotation Xrotation Yrotation
                        JOINT LeftWrist
                        {
                            OFFSET  28.869000  -0.000059  -0.000082
                            CHANNELS 3 Zrotation Xrotation Yrotation
                            JOINT LeftFinger0
                            {
                                OFFSET   2.044650  -2.323450   3.252850
                                CHANNELS 3 Zrotation Xrotation Yrotation
                                JOINT LeftFinger01
                                {
                                    OFFSET   3.088130   0.000000   0.000000
                                    CHANNELS 3 Zrotation Xrotation Yrotation
                                    JOINT LeftFinger02
                                    {
                                        OFFSET   2.639460   0.000000   0.000000
                                        CHANNELS 3 Zrotation Xrotation Yrotation
                                        End Site
                                        {
                                            OFFSET   2.582190   0.000000   0.000000
                                        }
                                    }
                                }
                            }
                            JOINT LeftFinger1
                            {
                                OFFSET   8.364480   0.000000   3.252850
                                CHANNELS 3 Zrotation Xrotation Yrotation
                                JOINT LeftFinger11
                                {
                                    OFFSET   4.646930   0.000000   0.000000
                                    CHANNELS 3 Zrotation Xrotation Yrotation
                                    JOINT LeftFinger12
                                    {
                                        OFFSET   2.323470   0.000000   0.000000
                                        CHANNELS 3 Zrotation Xrotation Yrotation
                                        End Site
                                        {
                                            OFFSET   2.273050   0.000000   0.000000
                                        }
                                    }
                                }
                            }
                            JOINT LeftFinger2
                            {
                                OFFSET   8.364490   0.000016   1.078090
                                CHANNELS 3 Zrotation Xrotation Yrotation
                                JOINT LeftFinger21
                                {
                                    OFFSET   5.111610   0.000000   0.000000
                                    CHANNELS 3 Zrotation Xrotation Yrotation
                                    JOINT LeftFinger22
                                    {
                                        OFFSET   2.788150   0.000016   0.000000
                                        CHANNELS 3 Zrotation Xrotation Yrotation
                                        End Site
                                        {
                                            OFFSET   2.727660   0.000000   0.000000
                                        }
                                    }
                                }
                            }
                            JOINT LeftFinger3
                            {
                                OFFSET   7.899780   0.000015  -1.078090
                                CHANNELS 3 Zrotation Xrotation Yrotation
                                JOINT LeftFinger31
                                {
                                    OFFSET   4.646930   0.000000   0.000000
                                    CHANNELS 3 Zrotation Xrotation Yrotation
                                    JOINT LeftFinger32
                                    {
                                        OFFSET   2.323470   0.000000   0.000000
                                        CHANNELS 3 Zrotation Xrotation Yrotation
                                        End Site
                                        {
                                            OFFSET   2.273050   0.000000   0.000000
                                        }
                                    }
                                }
                            }
                            JOINT LeftFinger4
                            {
                                OFFSET   7.435090   0.000000  -3.252850
                                CHANNELS 3 Zrotation Xrotation Yrotation
                                JOINT LeftFinger41
                                {
                                    OFFSET   3.717550   0.000000   0.000000
                                    CHANNELS 3 Zrotation Xrotation Yrotation
                                    JOINT LeftFinger42
                                    {
                                        OFFSET   1.858770   0.000000   0.000000
                                        CHANNELS 3 Zrotation Xrotation Yrotation
                                        End Site
                                        {
                                            OFFSET   1.818440   0.000000   0.000000
                                        }
                                    }
                                }
                            }
                        }
                    }
                }
            }
            JOINT RightCollar
            {
                OFFSET  -3.911910  19.017000  -0.467062
                CHANNELS 3 Zrotation Xrotation Yrotation
                JOINT RightShoulder
                {
                    OFFSET -10.383700   0.000014   0.000000
                    CHANNELS 3 Zrotation Xrotation Yrotation
                    JOINT RightElbow
                    {
                        OFFSET -26.662100   0.001225   0.001091
                        CHANNELS 3 Zrotation Xrotation Yrotation
                        JOINT RightWrist
                        {
                            OFFSET -28.869000  -0.000020  -0.000085
                            CHANNELS 3 Zrotation Xrotation Yrotation
                            JOINT RightFinger0
                            {
                                OFFSET  -2.044650  -2.323490   3.252850
                                CHANNELS 3 Zrotation Xrotation Yrotation
                                JOINT RightFinger01
                                {
                                    OFFSET  -3.088130   0.000000   0.000000
                                    CHANNELS 3 Zrotation Xrotation Yrotation
                                    JOINT RightFinger02
                                    {
                                        OFFSET  -2.639460   0.000000   0.000000
                                        CHANNELS 3 Zrotation Xrotation Yrotation
                                        End Site
                                        {
                                            OFFSET  -2.582190   0.000000   0.000000
                                        }
                                    }
                                }
                            }
                            JOINT RightFinger1
                            {
                                OFFSET  -8.364480   0.000000   3.252850
                                CHANNELS 3 Zrotation Xrotation Yrotation
                                JOINT RightFinger11
                                {
                                    OFFSET  -4.646930   0.000000   0.000000
                                    CHANNELS 3 Zrotation Xrotation Yrotation
                                    JOINT RightFinger12
                                    {
                                        OFFSET  -2.323470   0.000000   0.000000
                                        CHANNELS 3 Zrotation Xrotation Yrotation
                                        End Site
                                        {
                                            OFFSET  -2.273050   0.000000   0.000000
                                        }
                                    }
                                }
                            }
                            JOINT RightFinger2
                            {
                                OFFSET  -8.364480   0.000000   1.078090
                                CHANNELS 3 Zrotation Xrotation Yrotation
                                JOINT RightFinger21
                                {
                                    OFFSET  -5.111620   0.000000   0.000000
                                    CHANNELS 3 Zrotation Xrotation Yrotation
                                    JOINT RightFinger22
                                    {
                                        OFFSET  -2.788160   0.000000   0.000000
                                        CHANNELS 3 Zrotation Xrotation Yrotation
                                        End Site
                                        {
                                            OFFSET  -2.727660   0.000000   0.000000
                                        }
                                    }
                                }
                            }
                            JOINT RightFinger3
                            {
                                OFFSET  -7.899780   0.000000  -1.078090
                                CHANNELS 3 Zrotation Xrotation Yrotation
                                JOINT RightFinger31
                                {
                                    OFFSET  -4.646930   0.000000   0.000000
                                    CHANNELS 3 Zrotation Xrotation Yrotation
                                    JOINT RightFinger32
                                    {
                                        OFFSET  -2.323470   0.000000   0.000000
                                        CHANNELS 3 Zrotation Xrotation Yrotation
                                        End Site
                                        {
                                            OFFSET  -2.273050   0.000000   0.000000
                                        }
                                    }
                                }
                            }
                            JOINT RightFinger4
                            {
                                OFFSET  -7.435090   0.000000  -3.252850
                                CHANNELS 3 Zrotation Xrotation Yrotation
                                JOINT RightFinger41
                                {
                                    OFFSET  -3.717550   0.000000   0.000000
                                    CHANNELS 3 Zrotation Xrotation Yrotation
                                    JOINT RightFinger42
                                    {
                                        OFFSET  -1.858760   0.000000   0.000000
                                        CHANNELS 3 Zrotation Xrotation Yrotation
                                        End Site
                                        {
                                            OFFSET  -1.818440   0.000000   0.000000
                                        }
                                    }
                                }
                            }
                        }
                    }
                }
            }
        }
    }
    JOINT LeftHip
    {
        OFFSET   9.783030   0.000000   0.000000
        CHANNELS 3 Zrotation Xrotation Yrotation
        JOINT LeftKnee
        {
            OFFSET   0.000063 -41.789100   0.000608
            CHANNELS 3 Zrotation Xrotation Yrotation
            JOINT LeftAnkle
            {
                OFFSET   0.000048 -41.133200  -0.000184
                CHANNELS 3 Zrotation Xrotation Yrotation
                JOINT LeftToe
                {
                    OFFSET   0.000000  -6.358960  14.674500
                    CHANNELS 3 Zrotation Xrotation Yrotation
                    End Site
                    {
                        OFFSET   0.000000   0.000000   3.913200
                    }
                }
            }
        }
    }
    JOINT RightHip
    {
        OFFSET  -9.783030   0.000000   0.000000
        CHANNELS 3 Zrotation Xrotation Yrotation
        JOINT RightKnee
        {
            OFFSET   0.000071 -41.789100   0.001239
            CHANNELS 3 Zrotation Xrotation Yrotation
            JOINT RightAnkle
            {
                OFFSET   0.000037 -41.133200  -0.000166
                CHANNELS 3 Zrotation Xrotation Yrotation
                JOINT RightToe
                {
                    OFFSET   0.000000  -6.358960  14.674500
                    CHANNELS 3 Zrotation Xrotation Yrotation
                    End Site
                    {
                        OFFSET   0.000000   0.000000   3.913200
                    }
                }
            }
        }
    }
}
MOTION
Frames: 5
Frame Time:   0.016667
  1.705890  89.628500   0.631398  -6.452980 -16.724200 -15.542100  -0.673486  11.643600  -1.428220  -1.077650  23.300100  -2.803130  -1.034680   4.651490   0.084535  -1.725200   9.423150  13.466800  -6.430450  -5.190070   6.549020 -56.420400  34.494400 -33.736200   1.022400  -8.149710 -63.677000  -6.954910 -71.882200  15.936100  38.697600  24.518100 -64.626600  -7.347860  -0.002683  -0.000336   1.326080   0.005786  -0.003903 -17.330800   1.833970  -5.855430 -14.256600   0.001104  -0.002511  -9.979590   0.000100  -0.003569 -24.536500  -4.202890   9.112310 -24.871900   0.001567  -0.009427 -16.564700   0.004155  -0.000714 -19.237800  -4.135990  11.677400 -19.660800  -0.001641  -0.006165 -13.094200   0.000074  -0.003551 -21.555700  -8.620420  20.775400 -34.708400  -0.003392  -0.001346 -23.115800  -0.003202  -0.001714   9.186450  -1.711740  12.978700  59.343100   4.563740  30.783100  -9.914150 -20.421300  68.572700 -77.022300 -32.706700 -43.630500 -38.356400  37.083400  79.980200  34.114500   0.000496  -0.000193  12.057200  -0.007547   0.003024  46.584200  -2.684050  -2.536910  38.163000  -0.000754  -0.002255  28.071700   0.001888  -0.001416  35.564500  -3.537100  -4.935270  53.575300  -0.002544  -0.000371  35.681100  -0.002403  -0.000738  47.936400  -6.075470  -5.456530  54.373400   0.002562  -0.006247  39.414100  -0.004836  -0.005872  58.312700  -8.934930  -5.476240  88.112300   0.002666  -0.000517  58.682800  -0.000189   0.006348   0.883454  18.026300   6.355230  -0.218594   2.214500  15.840700  -3.425150  -5.151390   9.553800  -0.000000   0.000000   0.000000   4.553620   9.593660  -7.754490  -4.513470  14.040100  -0.083802  -7.639770  -4.522720  12.569500   0.000000   0.000000   0.000000
  1.706350  89.632300   0.701479  -6.495260 -16.623000 -15.673400  -0.626872  11.530900  -1.386170  -0.993128  23.073500  -2.726170  -1.068690   4.772970   0.088903  -1.790260   9.668360  13.430000  -6.477150  -5.186880   6.548590 -56.584400  34.459300 -33.600400   1.022220  -8.010890 -63.615200  -6.679320 -71.929500  16.238700  38.691200  24.538100 -64.662300  -7.344080  -0.002710  -0.000388   1.327970   0.005786  -0.003911 -17.257200   1.823290  -5.848140 -14.195800   0.001111  -0.002513  -9.937040   0.000113  -0.003570 -24.527200  -4.204010   9.114440 -24.862900   0.001626  -0.009531 -16.558700   0.004201  -0.000727 -19.251200  -4.138220  11.674600 -19.674400  -0.001608  -0.006171 -13.103200   0.000150  -0.003552 -21.568100  -8.624280  20.774600 -34.727800  -0.003364  -0.001290 -23.128700  -0.003195  -0.001707   9.196800  -1.719090  12.977200  59.471700   4.524940  30.665400  -9.928350 -20.444800  68.600900 -77.005800 -32.621800 -43.532500 -38.404700  37.091500  80.048400  34.010800   0.000574  -0.000229  12.005400  -0.007739   0.002965  46.660500  -2.674030  -2.520760  38.224900  -0.000759  -0.002171  28.131800   0.001824  -0.001301  35.603900  -3.535160  -4.924910  53.633900  -0.002498  -0.000311  35.720100  -0.002371  -0.000630  48.001900  -6.079510  -5.446820  54.371300   0.002685  -0.006333  39.428100  -0.004885  -0.005940  58.306400  -8.897420  -5.455150  88.096700   0.002844  -0.000419  58.672400   0.000000   0.006333   0.886923  17.988300   6.347020  -0.228488   2.233950  15.888600  -3.398950  -5.230530   9.644480  -0.000000   0.000000   0.000000   4.590470   9.585100  -7.714210  -4.515590  13.959200  -0.058501  -7.645550  -4.515350  12.627600   0.000000   0.000000   0.000000
  1.706580  89.635900   0.772433  -6.532770 -16.541700 -15.784100  -0.585117  11.426500  -1.339600  -0.919382  22.863500  -2.638740  -1.072760   4.854300   0.088964  -1.808740   9.833080  13.367500  -6.515540  -5.200020   6.548880 -56.766100  34.431100 -33.468200   1.035070  -7.853440 -63.547800  -6.534610 -71.954300  16.401800  38.657900  24.554200 -64.709500  -7.360170  -0.002742  -0.000368   1.319930   0.005793  -0.003925 -17.261000   1.829970  -5.868020 -14.199400   0.001118  -0.002515  -9.939570   0.000127  -0.003571 -24.555300  -4.205210   9.107340 -24.890700   0.001691  -0.009635 -16.577200   0.004248  -0.000740 -19.283700  -4.144200  11.667900 -19.707400  -0.001576  -0.006179 -13.125100   0.000209  -0.003552 -21.614700  -8.643770  20.774000 -34.803200  -0.003337  -0.001235 -23.179000  -0.003188  -0.001699   9.201010  -1.723930  12.965800  59.639000   4.443850  30.531800  -9.927780 -20.451400  68.650600 -76.955700 -32.562100 -43.375200 -38.459100  37.132400  80.130600  33.940600   0.000664  -0.000355  11.970300  -0.007942   0.002933  46.707500  -2.667790  -2.510780  38.263100  -0.000772  -0.002084  28.168900   0.001757  -0.001186  35.631800  -3.534040  -4.917550  53.675400  -0.002460  -0.000253  35.747800  -0.002337  -0.000515  48.090500  -6.084150  -5.433630  54.370200   0.002793  -0.006421  39.447000  -0.004935  -0.005998  58.322600  -8.881250  -5.441410  88.117500   0.003021  -0.000313  58.686300   0.000194   0.006308   0.893262  17.971600   6.329670  -0.243373   2.256460  15.927400  -3.377030  -5.312360   9.734470  -0.000000   0.000000  -0.000000   4.626120   9.589930  -7.637670  -4.509630  13.891500  -0.083670  -7.656350  -4.512870  12.672200   0.000000   0.000000   0.000000
  1.706640  89.639200   0.846077  -6.563900 -16.479500 -15.866600  -0.546890  11.328400  -1.295950  -0.852017  22.666200  -2.556530  -1.073420   4.913570   0.088979  -1.800050   9.953410  13.295800  -6.549450  -5.228780   6.550260 -56.961400  34.412300 -33.332400   1.055510  -7.692910 -63.478100  -6.481230 -71.972600  16.467700  38.636900  24.555900 -64.748100  -7.376250  -0.002771  -0.000328   1.311890   0.005802  -0.003939 -17.278100   1.843150  -5.903690 -14.214400   0.001127  -0.002519  -9.950060   0.000141  -0.003572 -24.602600  -4.206540   9.095400 -24.937500   0.001755  -0.009738 -16.608400   0.004296  -0.000753 -19.318900  -4.149020  11.661100 -19.742800  -0.001544  -0.006187 -13.148700   0.000264  -0.003553 -21.671000  -8.669960  20.774600 -34.894700  -0.003308  -0.001181 -23.239900  -0.003179  -0.001692   9.202990  -1.730260  12.949800  59.816300   4.353530  30.389300  -9.944360 -20.444300  68.690800 -76.906800 -32.487500 -43.201800 -38.510700  37.188900  80.210700  33.892800   0.000749  -0.000481  11.946400  -0.008150   0.002906  46.736900  -2.663850  -2.504530  38.287000  -0.000785  -0.001998  28.192200   0.001689  -0.001074  35.651400  -3.533310  -4.912370  53.704500  -0.002420  -0.000197  35.767200  -0.002303  -0.000398  48.145400  -6.088340  -5.425440  54.369600   0.002900  -0.006509  39.458800  -0.004983  -0.006055  58.337200  -8.872250  -5.433430  88.138400   0.003195  -0.000207  58.700200   0.000387   0.006283   0.901549  17.967600   6.303010  -0.261412   2.287930  15.950300  -3.355470  -5.395510   9.817660   0.000000   0.000000   0.000000   4.663350   9.613800  -7.549350  -4.499000  13.821200  -0.128744  -7.670020  -4.510570  12.692400   0.000000   0.000000   0.000000
  1.701060  89.642200   0.925322  -6.585930 -16.440800 -15.908800  -0.512015  11.235400  -1.259460  -0.790169  22.479400  -2.488850  -1.057240   4.958510   0.088983  -1.769480  10.044700  13.228200  -6.580040  -5.271600   6.557160 -57.182300  34.411700 -33.171600   1.086260  -7.535580 -63.406800  -6.564180 -71.998300  16.389800  38.612400  24.521500 -64.757600  -7.365700  -0.002786  -0.000281   1.317160   0.005804  -0.003946 -17.319400   1.858940  -5.938800 -14.249300   0.001138  -0.002525  -9.974520   0.000149  -0.003571 -24.650100  -4.208170   9.083390 -24.984600   0.001813  -0.009841 -16.639700   0.004346  -0.000764 -19.347100  -4.149720  11.656800 -19.770600  -0.001510  -0.006194 -13.167200   0.000326  -0.003555 -21.711400  -8.688770  20.779000 -34.959500  -0.003278  -0.001126 -23.283000  -0.003171  -0.001686   9.205820  -1.742510  12.939100  59.982400   4.283530  30.241300  -9.986920 -20.438700  68.695500 -76.871400 -32.356000 -43.028900 -38.561200  37.250200  80.290400  33.859800   0.000809  -0.000522  11.929900  -0.008356   0.002868  46.744700  -2.662820  -2.502880  38.293300  -0.000790  -0.001919  28.198400   0.001624  -0.000971  35.656500  -3.532690  -4.911050  53.712000  -0.002364  -0.000142  35.772200  -0.002270  -0.000286  48.128100  -6.090160  -5.428000  54.369200   0.003017  -0.006597  39.455200  -0.005020  -0.006118  58.306500  -8.854330  -5.429870  88.090400   0.003364  -0.000104  58.668300   0.000577   0.006265   0.912200  17.973200   6.262680  -0.283660   2.332370  15.956400  -3.334370  -5.477790   9.890980  -0.000000   0.000000  -0.000000   4.708590   9.670600  -7.471670  -4.491250  13.737100  -0.167217  -7.684810  -4.506800  12.675100  -0.000000   0.000000   0.000000
